<svg width="35" height="35" viewBox="0 0 35 35" fill="none" xmlns="http://www.w3.org/2000/svg">
<path d="M29.1666 13.8334C29.1666 10.0621 29.1666 8.17649 27.995 7.00492C26.8234 5.83334 24.9378 5.83334 21.1666 5.83334H13.8333C10.062 5.83334 8.1764 5.83334 7.00482 7.00492C5.83325 8.17649 5.83325 10.0621 5.83325 13.8333V27.1667C5.83325 28.1095 5.83325 28.5809 6.12615 28.8738C6.41904 29.1667 6.89044 29.1667 7.83325 29.1667H21.1666C24.9378 29.1667 26.8234 29.1667 27.995 27.9951C29.1666 26.8235 29.1666 24.9379 29.1666 21.1667V13.8334Z" stroke="#222222" stroke-width="3"/>
<path d="M13.125 14.5833L21.875 14.5833" stroke="#222222" stroke-width="3" stroke-linecap="round" stroke-linejoin="round"/>
<path d="M13.125 20.4167H17.5" stroke="#222222" stroke-width="3" stroke-linecap="round" stroke-linejoin="round"/>
</svg>
