<svg width="56" height="56" viewBox="0 0 56 56" fill="none" xmlns="http://www.w3.org/2000/svg">
<path d="M12.3315 16.9134L18.0997 27.0077C18.3765 27.4922 18.515 27.7345 18.515 28C18.515 28.2656 18.3765 28.5078 18.0997 28.9923L12.3315 39.0867C11.0932 41.2537 10.474 42.3372 10.9569 42.8745C11.4397 43.4118 12.583 42.9116 14.8696 41.9112L42.4786 29.8323C44.2741 29.0468 45.1718 28.654 45.1718 28C45.1718 27.346 44.2741 26.9532 42.4786 26.1677L14.8696 14.0888C12.583 13.0884 11.4397 12.5882 10.9569 13.1255C10.474 13.6628 11.0932 14.7464 12.3315 16.9134Z" fill="#FF6DA2"/>
</svg>
