<svg width="31" height="32" viewBox="0 0 31 32" fill="none" xmlns="http://www.w3.org/2000/svg">
<path d="M18.2568 4.45821L17.2615 4.55463V4.55464L18.2568 4.45821ZM17.857 2.9349L18.5385 2.20312L18.5385 2.20311L17.857 2.9349ZM18.2668 4.5612L19.2621 4.46477V4.46477L18.2668 4.5612ZM18.985 7.12097L18.5372 8.01511V8.01511L18.985 7.12097ZM19.1291 7.17958L19.4328 6.22682L19.4328 6.22682L19.1291 7.17958ZM21.4305 5.84854L20.7853 5.08456V5.08456L21.4305 5.84854ZM22.7345 5.05298L22.7307 4.05299L22.7307 4.05299L22.7345 5.05298ZM22.8418 5.05835L22.9454 4.06372L22.8418 5.05835ZM24.0599 5.98003L23.3417 6.67583L24.0599 5.98003ZM25.2398 7.19798L24.5216 7.89378V7.89378L25.2398 7.19798ZM25.3707 9.83189L26.1544 10.4531L26.1544 10.4531L25.3707 9.83189ZM25.2835 9.94188L24.4998 9.32072V9.32072L25.2835 9.94188ZM24.0241 12.344L23.0965 12.7176L23.0966 12.7176L24.0241 12.344ZM24.0365 12.3734L23.1213 12.7764L23.1214 12.7764L24.0365 12.3734ZM26.6354 13.1495L26.738 12.1548L26.6354 13.1495ZM28.1517 13.5575L28.8943 12.8876L28.8868 12.8796L28.1517 13.5575ZM28.1664 13.5738L28.9163 12.9121L28.9089 12.904L28.1664 13.5738ZM28.1665 18.4261L28.9091 19.096L28.9164 19.0877L28.1665 18.4261ZM28.1516 18.4426L28.8867 19.1207L28.8941 19.1124L28.1516 18.4426ZM26.6355 18.8505L26.7382 19.8453L26.6355 18.8505ZM24.0371 19.6264L24.9522 20.0297L24.9522 20.0296L24.0371 19.6264ZM24.0246 19.6562L24.9522 20.0296L24.9522 20.0296L24.0246 19.6562ZM25.2838 22.0579L24.5001 22.679L25.2838 22.0579ZM25.3708 22.1676L24.5871 22.7887V22.7887L25.3708 22.1676ZM26.1305 23.5255L25.1317 23.4759L26.1305 23.5255ZM25.2399 24.8015L24.5216 24.1057H24.5216L25.2399 24.8015ZM24.06 26.0194L24.7782 26.7152L24.06 26.0194ZM22.8419 26.9411L22.9454 27.9357L22.9454 27.9357L22.8419 26.9411ZM22.7345 26.9465L22.7384 25.9465H22.7383L22.7345 26.9465ZM21.4306 26.1509L22.0758 25.3869H22.0758L21.4306 26.1509ZM19.1292 24.8199L18.8254 23.8671L18.8254 23.8671L19.1292 24.8199ZM18.9851 24.8785L18.5373 23.9843L18.5373 23.9843L18.9851 24.8785ZM18.2668 27.4383L19.2622 27.5347V27.5347L18.2668 27.4383ZM18.2568 27.5416L17.2615 27.4452V27.4452L18.2568 27.5416ZM17.8569 29.0652L17.1754 28.3333L17.1754 28.3334L17.8569 29.0652ZM17.8382 29.0822L18.501 29.831L18.501 29.831L17.8382 29.0822ZM13.1617 29.0823L13.8244 28.3334L13.8244 28.3333L13.1617 29.0823ZM13.1429 29.0651L13.8245 28.3334L13.8244 28.3334L13.1429 29.0651ZM12.743 27.5418L11.7477 27.6382L12.743 27.5418ZM12.7331 27.4389L13.7284 27.3424L12.7331 27.4389ZM12.0148 24.879L12.4625 23.9848L12.4625 23.9848L12.0148 24.879ZM11.8708 24.8204L12.1746 23.8677L12.1745 23.8677L11.8708 24.8204ZM9.56923 26.1515L8.92399 25.3875H8.92399L9.56923 26.1515ZM8.26521 26.9471L8.26144 25.9471H8.26143L8.26521 26.9471ZM8.15793 26.9417L8.26146 25.9471L8.26144 25.9471L8.15793 26.9417ZM6.93979 26.02L7.65803 25.3242H7.65803L6.93979 26.02ZM5.75992 24.8021L5.00734 25.4606L5.02404 25.4797L5.04168 25.4979L5.75992 24.8021ZM5.75991 24.8021L6.51249 24.1436L6.49579 24.1245L6.47815 24.1063L5.75991 24.8021ZM4.86929 23.5261L5.86806 23.4765L4.86929 23.5261ZM5.62903 22.1682L6.41272 22.7893L6.41272 22.7893L5.62903 22.1682ZM5.71626 22.0581L4.93258 21.4369L4.93258 21.4369L5.71626 22.0581ZM6.97562 19.6561L6.04802 20.0297L6.04802 20.0297L6.97562 19.6561ZM6.96319 19.6266L7.87837 19.2235L7.87836 19.2235L6.96319 19.6266ZM4.36445 18.8506L4.46713 17.8558H4.46713L4.36445 18.8506ZM2.84814 18.4425L2.10557 19.1124L2.11302 19.1205L2.84814 18.4425ZM2.83341 18.4262L2.08353 19.0879L2.0909 19.096L2.83341 18.4262ZM2.58325 16.876H3.58325H2.58325ZM2.58325 15.1242H1.58325H2.58325ZM2.8335 13.5737L2.09093 12.9039L2.08375 12.912L2.8335 13.5737ZM2.84805 13.5576L2.1128 12.8797L2.10552 12.8878L2.84805 13.5576ZM4.36461 13.1495L4.26193 12.1548H4.26193L4.36461 13.1495ZM6.96375 12.3732L7.87899 12.7761L7.879 12.7761L6.96375 12.3732ZM6.97603 12.3441L7.90357 12.7178L7.90357 12.7178L6.97603 12.3441ZM5.71655 9.94163L6.50023 9.32047L6.50023 9.32047L5.71655 9.94163ZM5.62909 9.83129L4.8454 10.4524L4.8454 10.4524L5.62909 9.83129ZM5.75998 7.19738L5.04174 6.50159L5.75998 7.19738ZM6.93984 5.97946L7.65808 6.67525L6.93984 5.97946ZM8.15798 5.05774L8.05447 4.06311L8.05447 4.06311L8.15798 5.05774ZM8.26526 5.05238L8.2615 6.05237H8.2615L8.26526 5.05238ZM9.56928 5.84796L10.2145 5.08398H10.2145L9.56928 5.84796ZM11.8708 7.17905L12.1746 8.13179L12.1746 8.13179L11.8708 7.17905ZM12.0148 7.12046L12.4625 8.01463L12.4626 8.01463L12.0148 7.12046ZM12.7331 4.56059L13.7285 4.65701V4.65701L12.7331 4.56059ZM12.743 4.45804L11.7477 4.36162V4.36162L12.743 4.45804ZM13.1428 2.935L12.4612 2.20327L12.4611 2.20331L13.1428 2.935ZM13.1618 2.91767L12.4993 2.16866L12.4993 2.16867L13.1618 2.91767ZM17.8381 2.91776L18.5008 2.16887L18.5008 2.16884L17.8381 2.91776ZM19.2521 4.36179C19.2138 3.96626 19.1779 3.57551 19.1055 3.25616C19.027 2.90985 18.881 2.5221 18.5385 2.20312L17.1754 3.66669C17.1102 3.60593 17.1232 3.55815 17.1549 3.69809C17.1928 3.86499 17.2181 4.10678 17.2615 4.55463L19.2521 4.36179ZM19.2621 4.46477L19.2521 4.36178L17.2615 4.55464L17.2714 4.65762L19.2621 4.46477ZM19.4328 6.22682C19.5957 6.3084 19.5499 6.43282 19.4694 6.09472C19.3901 5.76166 19.3398 5.26679 19.2621 4.46477L17.2714 4.65762C17.3431 5.3971 17.4048 6.05835 17.5238 6.55792C17.6415 7.05245 17.8801 7.68601 18.5372 8.01511L19.4328 6.22682ZM19.4328 6.22682L19.4328 6.22682L18.5372 8.01511C18.6301 8.0616 18.7264 8.1008 18.8254 8.13235L19.4328 6.22682ZM20.7853 5.08456C20.1697 5.60447 19.7882 5.92366 19.4989 6.10673C19.2052 6.29258 19.2593 6.1715 19.4328 6.22682L18.8254 8.13235C19.5256 8.35556 20.1388 8.06861 20.5683 7.79678C21.0023 7.52218 21.5082 7.09189 22.0758 6.61252L20.7853 5.08456ZM22.7307 4.05299C22.2793 4.0547 21.9187 4.22912 21.633 4.41642C21.3681 4.59004 21.0795 4.83606 20.7853 5.08456L22.0758 6.61252C22.4084 6.33157 22.59 6.1805 22.7295 6.08905C22.8481 6.01128 22.8261 6.05264 22.7383 6.05297L22.7307 4.05299ZM22.9454 4.06372C22.8741 4.0563 22.8024 4.05272 22.7307 4.05299L22.7383 6.05297H22.7383L22.9454 4.06372ZM24.7782 5.28424C24.5102 5.00762 24.2476 4.73403 24.0014 4.53486C23.7358 4.31999 23.3944 4.11047 22.9454 4.06372L22.7383 6.05297C22.651 6.04388 22.6332 6.00053 22.7435 6.08975C22.8731 6.19466 23.0387 6.36309 23.3417 6.67583L24.7782 5.28424ZM25.958 6.50219L24.7782 5.28423L23.3417 6.67583L24.5216 7.89378L25.958 6.50219ZM27.1292 8.4243C27.1062 7.96128 26.9078 7.60244 26.6963 7.32026C26.5017 7.06069 26.2304 6.78337 25.958 6.50219L24.5216 7.89378C24.8305 8.21265 24.9952 8.38537 25.0959 8.5198C25.1797 8.63161 25.136 8.61072 25.1317 8.52357L27.1292 8.4243ZM26.1544 10.4531C26.3976 10.1462 26.64 9.8434 26.8079 9.56583C26.9904 9.26406 27.1522 8.88732 27.1292 8.4243L25.1317 8.52357C25.1273 8.43641 25.1688 8.41129 25.0965 8.53085C25.0096 8.67461 24.8628 8.86281 24.587 9.21073L26.1544 10.4531ZM26.0672 10.563L26.1544 10.4531L24.587 9.21073L24.4998 9.32072L26.0672 10.563ZM24.9517 11.9704C25.0197 12.1392 24.8964 12.2047 25.0685 11.9078C25.242 11.6083 25.5543 11.2102 26.0672 10.563L24.4998 9.32072C24.0284 9.91552 23.6024 10.4489 23.338 10.9051C23.0722 11.3639 22.8114 12.0096 23.0965 12.7176L24.9517 11.9704ZM24.9518 11.9704L24.9517 11.9704L23.0966 12.7176C23.1045 12.7374 23.1128 12.757 23.1213 12.7764L24.9518 11.9704ZM26.738 12.1548C25.9167 12.07 25.4136 12.0155 25.0781 11.9305C24.7454 11.8463 24.8784 11.8038 24.9517 11.9704L23.1214 12.7764C23.429 13.475 24.0732 13.7392 24.5873 13.8693C25.0984 13.9988 25.7777 14.0663 26.5327 14.1442L26.738 12.1548ZM28.8868 12.8796C28.5704 12.5364 28.1846 12.3883 27.8394 12.3079C27.5213 12.2337 27.1319 12.1954 26.738 12.1548L26.5327 14.1442C26.9788 14.1903 27.2194 14.217 27.3854 14.2557C27.5244 14.2881 27.4767 14.3007 27.4166 14.2354L28.8868 12.8796ZM28.9089 12.904L28.8942 12.8877L27.4092 14.2274L27.4239 14.2436L28.9089 12.904ZM29.4166 15.124C29.4166 14.7281 29.4185 14.3368 29.3774 14.0127C29.3328 13.6612 29.2251 13.2622 28.9162 12.9122L27.4166 14.2354C27.3579 14.1689 27.3753 14.1228 27.3933 14.2644C27.4147 14.4335 27.4166 14.6756 27.4166 15.124H29.4166ZM29.4166 16.8762V15.124H27.4166V16.8762H29.4166ZM28.9164 19.0877C29.2252 18.7376 29.3328 18.3387 29.3774 17.9873C29.4185 17.6633 29.4166 17.2721 29.4166 16.8762H27.4166C27.4166 17.3246 27.4147 17.5666 27.3933 17.7357C27.3753 17.8772 27.3579 17.8311 27.4166 17.7646L28.9164 19.0877ZM28.8941 19.1124L28.909 19.096L27.424 17.7563L27.4091 17.7728L28.8941 19.1124ZM26.7382 19.8453C27.132 19.8046 27.5213 19.7663 27.8394 19.6922C28.1844 19.6117 28.5702 19.4637 28.8867 19.1206L27.4166 17.7646C27.4767 17.6994 27.5244 17.712 27.3854 17.7444C27.2194 17.7831 26.9789 17.8098 26.5328 17.8558L26.7382 19.8453ZM24.9522 20.0296C24.8789 20.1961 24.7459 20.1537 25.0786 20.0695C25.4141 19.9845 25.917 19.93 26.7382 19.8453L26.5328 17.8558C25.778 17.9337 25.0989 18.0012 24.5878 18.1306C24.0738 18.2607 23.4297 18.5249 23.122 19.2232L24.9522 20.0296ZM24.9522 20.0296L24.9522 20.0297L23.122 19.2231C23.1133 19.2429 23.1049 19.2628 23.0969 19.2828L24.9522 20.0296ZM26.0675 21.4367C25.5547 20.7897 25.2425 20.3917 25.069 20.0922C24.8969 19.7953 25.0202 19.8608 24.9522 20.0296L23.0969 19.2828C22.8119 19.9907 23.0727 20.6362 23.3385 21.0949C23.6028 21.5511 24.0288 22.0843 24.5001 22.679L26.0675 21.4367ZM26.1544 21.5464L26.0675 21.4367L24.5001 22.679L24.5871 22.7887L26.1544 21.5464ZM27.1293 23.5751C27.1523 23.1121 26.9904 22.7354 26.8079 22.4336C26.6401 22.156 26.3976 21.8532 26.1544 21.5464L24.5871 22.7887C24.8628 23.1366 25.0096 23.3248 25.0965 23.4686C25.1689 23.5882 25.1274 23.563 25.1317 23.4759L27.1293 23.5751ZM25.9581 25.4973C26.2305 25.2161 26.5018 24.9388 26.6963 24.6792C26.9079 24.397 27.1063 24.0382 27.1293 23.5751L25.1317 23.4759C25.1361 23.3887 25.1798 23.3678 25.096 23.4796C24.9952 23.6141 24.8305 23.7868 24.5216 24.1057L25.9581 25.4973ZM24.7782 26.7152L25.9581 25.4973L24.5216 24.1057L23.3417 25.3236L24.7782 26.7152ZM22.9454 27.9357C23.3945 27.889 23.7358 27.6795 24.0014 27.4646C24.2476 27.2654 24.5102 26.9918 24.7782 26.7152L23.3417 25.3236C23.0388 25.6364 22.8732 25.8048 22.7435 25.9097C22.6332 25.9989 22.651 25.9556 22.7383 25.9465L22.9454 27.9357ZM22.7307 27.9465C22.8025 27.9467 22.8741 27.9431 22.9454 27.9357L22.7384 25.9465L22.7384 25.9465L22.7307 27.9465ZM20.7854 26.9149C21.0796 27.1634 21.3682 27.4094 21.633 27.583C21.9188 27.7703 22.2793 27.9447 22.7307 27.9465L22.7383 25.9465C22.8261 25.9468 22.8482 25.9882 22.7295 25.9104C22.59 25.8189 22.4085 25.6679 22.0758 25.3869L20.7854 26.9149ZM19.4329 25.7726C19.2593 25.828 19.2053 25.7069 19.4989 25.8927C19.7883 26.0758 20.1698 26.395 20.7854 26.9149L22.0758 25.3869C21.5082 24.9076 21.0023 24.4773 20.5684 24.2027C20.1388 23.9308 19.5256 23.6439 18.8254 23.8671L19.4329 25.7726ZM19.4328 25.7726L19.4329 25.7726L18.8254 23.8671C18.7265 23.8986 18.6302 23.9378 18.5373 23.9843L19.4328 25.7726ZM19.2622 27.5347C19.3399 26.7327 19.3901 26.2378 19.4694 25.9047C19.5499 25.5666 19.5958 25.6911 19.4329 25.7726L18.5373 23.9843C17.8802 24.3134 17.6415 24.947 17.5238 25.4415C17.4049 25.9411 17.3431 26.6024 17.2715 27.3418L19.2622 27.5347ZM19.2522 27.6381L19.2622 27.5347L17.2715 27.3418L17.2615 27.4452L19.2522 27.6381ZM18.5383 29.7971C18.8809 29.4781 19.027 29.0903 19.1055 28.7439C19.1779 28.4245 19.2138 28.0337 19.2522 27.6381L17.2615 27.4452C17.2181 27.8932 17.1928 28.135 17.1549 28.3019C17.1232 28.4419 17.1102 28.3941 17.1754 28.3333L18.5383 29.7971ZM18.501 29.831C18.5136 29.8198 18.5261 29.8085 18.5383 29.7971L17.1754 28.3334L17.1754 28.3334L18.501 29.831ZM16.2831 30.3334C16.6806 30.3334 17.0731 30.3352 17.398 30.294C17.7503 30.2493 18.1504 30.1413 18.501 29.831L17.1754 28.3334C17.2422 28.2743 17.2885 28.2918 17.1462 28.3099C16.9764 28.3315 16.7332 28.3334 16.2831 28.3334V30.3334ZM14.7165 30.3334H16.2831V28.3334H14.7165V30.3334ZM12.499 29.8312C12.8496 30.1413 13.2496 30.2493 13.6019 30.294C13.9267 30.3352 14.3191 30.3334 14.7165 30.3334V28.3334C14.2666 28.3334 14.0234 28.3315 13.8537 28.3099C13.7113 28.2919 13.7576 28.2743 13.8244 28.3334L12.499 29.8312ZM12.4613 29.7969C12.4738 29.8085 12.4864 29.82 12.4991 29.8312L13.8244 28.3333L13.8245 28.3334L12.4613 29.7969ZM11.7477 27.6382C11.786 28.0338 11.822 28.4245 11.8943 28.7439C11.9728 29.0902 12.1188 29.478 12.4613 29.7969L13.8244 28.3334C13.8896 28.3941 13.8766 28.4419 13.8449 28.3019C13.8071 28.135 13.7818 27.8932 13.7384 27.4454L11.7477 27.6382ZM11.7377 27.5353L11.7477 27.6382L13.7384 27.4454L13.7284 27.3424L11.7377 27.5353ZM11.567 25.7731C11.4041 25.6916 11.45 25.5671 11.5305 25.9053C11.6097 26.2383 11.66 26.7332 11.7377 27.5353L13.7284 27.3424C13.6568 26.6029 13.595 25.9416 13.4761 25.442C13.3583 24.9475 13.1197 24.3139 12.4625 23.9848L11.567 25.7731ZM11.567 25.7731L11.567 25.7732L12.4625 23.9848C12.3697 23.9384 12.2734 23.8992 12.1746 23.8677L11.567 25.7731ZM10.2145 26.9155C10.8301 26.3955 11.2116 26.0763 11.5009 25.8932C11.7946 25.7074 11.7406 25.8285 11.567 25.7731L12.1745 23.8677C11.4743 23.6444 10.8611 23.9314 10.4315 24.2032C9.99752 24.4778 9.49161 24.9081 8.92399 25.3875L10.2145 26.9155ZM8.26897 27.9471C8.72043 27.9454 9.08101 27.7709 9.36674 27.5836C9.6316 27.41 9.92022 27.164 10.2145 26.9155L8.92399 25.3875C8.59132 25.6685 8.40976 25.8195 8.27025 25.911C8.15161 25.9888 8.17363 25.9474 8.26144 25.9471L8.26897 27.9471ZM8.05439 27.9363C8.12568 27.9438 8.19732 27.9473 8.26899 27.9471L8.26143 25.9471L8.26146 25.9471L8.05439 27.9363ZM6.22155 26.7158C6.48953 26.9924 6.75217 27.266 6.99839 27.4652C7.264 27.6801 7.60538 27.8896 8.05442 27.9363L8.26144 25.9471C8.34878 25.9562 8.36656 25.9995 8.25627 25.9103C8.12659 25.8054 7.961 25.6369 7.65803 25.3242L6.22155 26.7158ZM5.04168 25.4979L6.22155 26.7158L7.65803 25.3242L6.47816 24.1063L5.04168 25.4979ZM5.00733 25.4606L5.00734 25.4606L6.5125 24.1436L6.51249 24.1436L5.00733 25.4606ZM3.87052 23.5758C3.89353 24.0388 4.09193 24.3976 4.30345 24.6798C4.498 24.9394 4.76927 25.2167 5.04167 25.4979L6.47815 24.1063C6.16925 23.7874 6.00455 23.6147 5.90379 23.4802C5.81998 23.3684 5.86373 23.3893 5.86806 23.4765L3.87052 23.5758ZM4.84535 21.547C4.60217 21.8538 4.35972 22.1567 4.19186 22.4342C4.00936 22.736 3.84751 23.1127 3.87052 23.5758L5.86806 23.4765C5.87239 23.5636 5.83093 23.5888 5.90324 23.4692C5.99018 23.3254 6.13695 23.1372 6.41272 22.7893L4.84535 21.547ZM4.93258 21.4369L4.84535 21.547L6.41272 22.7893L6.49995 22.6793L4.93258 21.4369ZM6.04802 20.0297C5.98004 19.8609 6.1033 19.7953 5.93124 20.0923C5.75771 20.3917 5.44548 20.7898 4.93258 21.4369L6.49995 22.6793C6.97138 22.0845 7.3974 21.5512 7.66175 21.0949C7.92757 20.6361 8.18834 19.9905 7.90323 19.2825L6.04802 20.0297ZM6.048 20.0296C6.04801 20.0296 6.04801 20.0296 6.04802 20.0297L7.90323 19.2825C7.89526 19.2627 7.88697 19.2431 7.87837 19.2235L6.048 20.0296ZM4.26177 19.8453C5.08313 19.9301 5.58611 19.9846 5.92166 20.0695C6.25437 20.1537 6.12136 20.1962 6.04802 20.0297L7.87836 19.2235C7.57072 18.525 6.92649 18.2608 6.41248 18.1307C5.90131 18.0013 5.22207 17.9338 4.46713 17.8558L4.26177 19.8453ZM2.11302 19.1205C2.42951 19.4637 2.8153 19.6117 3.1604 19.6922C3.47851 19.7663 3.86789 19.8046 4.26177 19.8453L4.46713 17.8558C4.02102 17.8098 3.78041 17.7831 3.61444 17.7444C3.47546 17.712 3.52309 17.6994 3.58325 17.7646L2.11302 19.1205ZM2.0909 19.096L2.10562 19.1124L3.59065 17.7727L3.57593 17.7564L2.0909 19.096ZM1.58325 16.876C1.58325 17.272 1.58137 17.6633 1.62247 17.9873C1.66705 18.3388 1.7747 18.7378 2.08357 19.0878L3.58325 17.7646C3.64196 17.8311 3.62453 17.8772 3.60657 17.7356C3.58513 17.5666 3.58325 17.3245 3.58325 16.876H1.58325ZM1.58325 15.1242L1.58325 16.876H3.58325L3.58325 15.1242H1.58325ZM2.08375 12.912C1.77477 13.2621 1.66708 13.6611 1.62248 14.0127C1.58137 14.3368 1.58325 14.7281 1.58325 15.1242H3.58325C3.58325 14.6756 3.58513 14.4335 3.60658 14.2644C3.62454 14.1228 3.64198 14.1689 3.58325 14.2354L2.08375 12.912ZM2.10552 12.8878L2.09097 12.9039L3.57603 14.2435L3.59057 14.2274L2.10552 12.8878ZM4.26193 12.1548C3.86798 12.1954 3.47852 12.2337 3.16036 12.3079C2.8152 12.3884 2.42935 12.5365 2.11284 12.8798L3.58325 14.2354C3.52309 14.3007 3.47545 14.2881 3.61445 14.2557C3.78045 14.217 4.0211 14.1902 4.4673 14.1442L4.26193 12.1548ZM6.0485 11.9703C6.12182 11.8038 6.25489 11.8462 5.92213 11.9305C5.58653 12.0154 5.08345 12.07 4.26193 12.1548L4.46729 14.1442C5.22238 14.0662 5.90174 13.9987 6.413 13.8693C6.9271 13.7391 7.57143 13.4748 7.87899 12.7761L6.0485 11.9703ZM6.0485 11.9703L6.04849 11.9704L7.879 12.7761C7.8875 12.7568 7.89568 12.7374 7.90357 12.7178L6.0485 11.9703ZM4.93286 10.5628C5.44586 11.21 5.75815 11.6082 5.9317 11.9077C6.10378 12.2047 5.98048 12.1391 6.0485 11.9703L7.90357 12.7178C8.18888 12.0097 7.92809 11.364 7.66224 10.9051C7.39785 10.4488 6.97175 9.91536 6.50023 9.32047L4.93286 10.5628ZM4.8454 10.4524L4.93286 10.5628L6.50023 9.32047L6.41277 9.21013L4.8454 10.4524ZM3.87058 8.4237C3.84757 8.88671 4.00942 9.26346 4.19192 9.56522C4.35978 9.84279 4.60222 10.1456 4.8454 10.4524L6.41277 9.21013C6.137 8.86221 5.99024 8.67401 5.9033 8.53025C5.83099 8.41068 5.87244 8.43581 5.86811 8.52296L3.87058 8.4237ZM5.04174 6.50159C4.76934 6.78277 4.49806 7.06009 4.30351 7.31965C4.09199 7.60184 3.89359 7.96068 3.87058 8.4237L5.86811 8.52296C5.86378 8.61011 5.82004 8.63101 5.90385 8.5192C6.00461 8.38477 6.16931 8.21204 6.47822 7.89318L5.04174 6.50159ZM6.2216 5.28366L5.04174 6.50159L6.47822 7.89318L7.65808 6.67525L6.2216 5.28366ZM8.05447 4.06311C7.60543 4.10985 7.26406 4.31937 6.99844 4.53425C6.75222 4.73343 6.48959 5.00703 6.2216 5.28366L7.65808 6.67525C7.96106 6.3625 8.12664 6.19406 8.25633 6.08915C8.36662 5.99993 8.34883 6.04328 8.2615 6.05237L8.05447 4.06311ZM8.26903 4.05238C8.19737 4.05211 8.12575 4.0557 8.05447 4.06311L8.2615 6.05237H8.2615L8.26903 4.05238ZM10.2145 5.08398C9.92028 4.83547 9.63165 4.58944 9.36679 4.41581C9.08106 4.2285 8.72049 4.05408 8.26903 4.05238L8.2615 6.05237C8.17369 6.05204 8.15167 6.01068 8.27031 6.08845C8.40982 6.1799 8.59138 6.33098 8.92405 6.61194L10.2145 5.08398ZM11.5671 6.2263C11.7406 6.17096 11.7947 6.29205 11.501 6.1062C11.2117 5.92312 10.8301 5.60392 10.2145 5.08398L8.92405 6.61194C9.49167 7.09134 9.99758 7.52165 10.4316 7.79626C10.8611 8.06809 11.4744 8.35505 12.1746 8.13179L11.5671 6.2263ZM11.5671 6.2263L11.5671 6.2263L12.1746 8.13179C12.2735 8.10027 12.3698 8.06109 12.4625 8.01463L11.5671 6.2263ZM11.7378 4.46417C11.6601 5.26622 11.6098 5.76112 11.5305 6.09419C11.45 6.43231 11.4042 6.30787 11.5671 6.2263L12.4626 8.01463C13.1197 7.68555 13.3584 7.05196 13.4761 6.55741C13.5951 6.05781 13.6568 5.39653 13.7285 4.65701L11.7378 4.46417ZM11.7477 4.36162L11.7378 4.46417L13.7285 4.65701L13.7384 4.55446L11.7477 4.36162ZM12.4611 2.20331C12.1187 2.52228 11.9727 2.90996 11.8943 3.2562C11.822 3.57549 11.786 3.96617 11.7477 4.36162L13.7384 4.55446C13.7818 4.1067 13.8071 3.86496 13.8449 3.69809C13.8766 3.55816 13.8896 3.60593 13.8244 3.66669L12.4611 2.20331ZM12.4993 2.16867C12.4864 2.18005 12.4737 2.19159 12.4612 2.20327L13.8243 3.66673C13.8244 3.6667 13.8244 3.66668 13.8244 3.66667L12.4993 2.16867ZM14.7163 1.66669C14.319 1.66669 13.9267 1.6648 13.6019 1.70601C13.2497 1.7507 12.8498 1.85862 12.4993 2.16866L13.8244 3.66669C13.7576 3.72574 13.7113 3.70817 13.8537 3.69011C14.0234 3.66857 14.2665 3.66669 14.7163 3.66669V1.66669ZM16.2833 1.66669H14.7163V3.66669H16.2833V1.66669ZM18.5008 2.16884C18.1502 1.85869 17.7502 1.75073 17.398 1.70603C17.0731 1.6648 16.6807 1.66669 16.2833 1.66669V3.66669C16.7333 3.66669 16.9764 3.66857 17.1462 3.69011C17.2885 3.70818 17.2422 3.72576 17.1754 3.66669L18.5008 2.16884ZM18.5385 2.20311C18.5261 2.19153 18.5135 2.18011 18.5008 2.16887L17.1754 3.66666C17.1754 3.66668 17.1754 3.66669 17.1755 3.6667L18.5385 2.20311ZM19.6666 16C19.6666 18.4234 17.7714 20.3334 15.4999 20.3334V22.3334C18.9354 22.3334 21.6666 19.4677 21.6666 16H19.6666ZM15.4999 11.6667C17.7714 11.6667 19.6666 13.5766 19.6666 16H21.6666C21.6666 12.5324 18.9354 9.66669 15.4999 9.66669V11.6667ZM11.3332 16C11.3332 13.5766 13.2284 11.6667 15.4999 11.6667V9.66669C12.0645 9.66669 9.33325 12.5324 9.33325 16H11.3332ZM15.4999 20.3334C13.2284 20.3334 11.3332 18.4234 11.3332 16H9.33325C9.33325 19.4677 12.0645 22.3334 15.4999 22.3334V20.3334Z" fill="#33363F"/>
</svg>
