<svg width="20" height="14" viewBox="0 0 20 14" fill="none" xmlns="http://www.w3.org/2000/svg">
<path fill-rule="evenodd" clip-rule="evenodd" d="M0.67748 5.27094C2.06278 3.19808 4.96675 0 9.69819 0C14.4296 0 17.3336 3.19808 18.7189 5.27094C19.1838 5.96655 19.4162 6.31435 19.3951 6.95691C19.3739 7.59948 19.1071 7.94688 18.5734 8.64168C16.9843 10.7107 13.8112 14 9.69819 14C5.58524 14 2.41208 10.7107 0.822951 8.64168C0.289304 7.94688 0.0224809 7.59948 0.00132521 6.95691C-0.0198305 6.31435 0.212606 5.96655 0.67748 5.27094ZM9.69819 11C11.9073 11 13.6982 9.20914 13.6982 7C13.6982 4.79086 11.9073 3 9.69819 3C7.48905 3 5.69819 4.79086 5.69819 7C5.69819 9.20914 7.48905 11 9.69819 11Z" fill="#222222"/>
</svg>
